<svg xmlns="http://www.w3.org/2000/svg" aria-hidden="true" style="position:absolute;width:0;height:0;overflow:hidden"><defs><symbol id="menu" viewBox="0 0 32 32"><path d="M6.4 11.733V9.6h19.2v2.133H6.4zm0 5.334h19.2v-2.133H6.4v2.133zm0 5.333h19.2v-2.133H6.4V22.4z"/></symbol><symbol id="cross" viewBox="0 0 32 32"><path d="M23.733 10.304 22.229 8.8l-5.963 5.963L10.303 8.8l-1.504 1.504 5.963 5.963-5.963 5.963 1.504 1.504 5.963-5.963 5.963 5.963 1.504-1.504-5.963-5.963 5.963-5.963z"/></symbol><symbol id="map-pin" viewBox="0 0 32 32"><path fill="" d="M16 2.333a11 11 0 0 0-11 11c0 4.265 2.766 8.354 5.726 11.479A39.556 39.556 0 0 0 16 29.443a39.556 39.556 0 0 0 5.274-4.631C24.234 21.687 27 17.598 27 13.333a11 11 0 0 0-11-11zm0 28.334-.555.832-.003-.002-.038-.025-.108-.074a37.412 37.412 0 0 1-1.794-1.343 41.446 41.446 0 0 1-4.228-3.865C6.234 22.981 3 18.404 3 13.336a13 13 0 0 1 26 0c0 5.069-3.234 9.646-6.274 12.854a41.446 41.446 0 0 1-5.625 4.927c-.17.123-.304.217-.397.281l-.108.074-.038.025-.003.002s-.001.001-.556-.831zm0 0 .555.832a1 1 0 0 1-1.11 0l.555-.832z" style=""/><path fill="" d="M16 10.333a3 3 0 1 0 0 6 3 3 0 0 0 0-6zm-5 3a5 5 0 1 1 10.001.001A5 5 0 0 1 11 13.333z" style=""/></symbol></defs></svg>